<svg id="background" xmlns="http://www.w3.org/2000/svg" width="30" height="30" viewBox="0 0 30 30"><defs><style>.cls-1{fill:none;}.cls-2{fill:#fff;}</style></defs><title>dragIcon</title><rect class="cls-1" width="30" height="30"/><path class="cls-2" d="M26,15a0.75,0.75,0,0,1-.23.55L22.62,18.7a0.79,0.79,0,0,1-1.34-.55V16.05H16.05v5.23h2.09a0.78,0.78,0,0,1,.55,1.34l-3.14,3.14a0.77,0.77,0,0,1-1.11,0L11.3,22.62a0.79,0.79,0,0,1,.55-1.34H14V16.05H8.71v2.09a0.78,0.78,0,0,1-1.34.55L4.23,15.55a0.77,0.77,0,0,1,0-1.1L7.38,11.3a0.79,0.79,0,0,1,1.34.55V14l5.24,0V8.71h-2.1a0.78,0.78,0,0,1-.55-1.34l3.14-3.14a0.77,0.77,0,0,1,1.11,0L18.7,7.38a0.79,0.79,0,0,1-.55,1.34H16.05l0,5.21h5.26V11.86a0.78,0.78,0,0,1,1.34-.55l3.14,3.14A0.75,0.75,0,0,1,26,15Z"/></svg>