<svg id="Background" xmlns="http://www.w3.org/2000/svg" width="30" height="30" viewBox="0 0 30 30"><defs><style>.cls-1{fill:none;}.cls-2{font-size:4px;}.cls-2,.cls-7,.cls-8{fill:#3c3c3c;}.cls-2,.cls-4,.cls-6{font-family:Verdana;}.cls-3{fill:#adacd6;}.cls-4{font-size:2px;}.cls-4,.cls-6{fill:#fff;}.cls-5{fill:#494b9f;}.cls-6{font-size:1.98px;}.cls-7{stroke:#fff;stroke-miterlimit:10;stroke-width:1.5px;}</style></defs><title>paragraphTypeQuestion</title><rect class="cls-1" width="30" height="30"/><text class="cls-2" transform="translate(5.64 21.1)">question <tspan x="-1.63" y="4.8">sc</tspan><tspan x="2.54" y="4.8">r</tspan><tspan x="4.18" y="4.8">atchpad</tspan></text><rect class="cls-3" x="20.13" y="10.06" width="7.04" height="3.66"/><text class="cls-4" transform="translate(21.12 12.42)">speed</text><rect class="cls-5" x="10.89" y="10.12" width="6.84" height="3.66"/><text class="cls-4" transform="translate(11.88 12.47)">THEN</text><rect class="cls-3" x="2" y="10.12" width="6.34" height="3.66"/><text class="cls-4" transform="translate(2.99 12.47)">mass</text><rect class="cls-5" x="17.73" y="3" width="7.37" height="3.66"/><text class="cls-4" transform="translate(18.72 5.35)">has no</text><rect class="cls-5" x="2" y="3.02" width="3.48" height="3.62"/><text class="cls-6" transform="translate(2.98 5.35)">IF</text><rect class="cls-3" x="7.87" y="3" width="7.47" height="3.66"/><text class="cls-4" transform="translate(8.86 5.35)">object</text><path class="cls-7" d="M21.38,9.27a6.27,6.27,0,0,1-.53,2.63,7.26,7.26,0,0,1-1.39,2,13.06,13.06,0,0,1-1.95,1.62q-1.1.76-2.34,1.46v3.4h-2.7v-4.6l2.12-1.22a10.34,10.34,0,0,0,1.86-1.34,6.71,6.71,0,0,0,1.36-1.62A4.23,4.23,0,0,0,18.3,9.5,2.94,2.94,0,0,0,17.14,7a5,5,0,0,0-3-.84,9.23,9.23,0,0,0-3.09.51,11.85,11.85,0,0,0-2.3,1H8.62V4.59a16.69,16.69,0,0,1,2.68-.73,15.72,15.72,0,0,1,3.07-.32A7.73,7.73,0,0,1,19.5,5.11,5.16,5.16,0,0,1,21.38,9.27Zm-6,17.19H12.34V23.28h3.08v3.18Z"/><path class="cls-8" d="M21.38,9.27a6.27,6.27,0,0,1-.53,2.63,7.26,7.26,0,0,1-1.39,2,13.06,13.06,0,0,1-1.95,1.62q-1.1.76-2.34,1.46v3.4h-2.7v-4.6l2.12-1.22a10.34,10.34,0,0,0,1.86-1.34,6.71,6.71,0,0,0,1.36-1.62A4.23,4.23,0,0,0,18.3,9.5,2.94,2.94,0,0,0,17.14,7a5,5,0,0,0-3-.84,9.23,9.23,0,0,0-3.09.51,11.85,11.85,0,0,0-2.3,1H8.62V4.59a16.69,16.69,0,0,1,2.68-.73,15.72,15.72,0,0,1,3.07-.32A7.73,7.73,0,0,1,19.5,5.11,5.16,5.16,0,0,1,21.38,9.27Zm-6,17.19H12.34V23.28h3.08v3.18Z"/></svg>