<svg id="Background" xmlns="http://www.w3.org/2000/svg" width="30" height="30" viewBox="0 0 30 30"><defs><style>.cls-1,.cls-2,.cls-3,.cls-4{fill:none;}.cls-2,.cls-3{stroke:#231f20;}.cls-2,.cls-3,.cls-4{stroke-miterlimit:10;}.cls-2{stroke-width:0.97px;}.cls-3{stroke-width:0.97px;}.cls-4{stroke:#808285;}</style></defs><title>paragraphTypeGraph</title><rect class="cls-1" width="30" height="30"/><line class="cls-2" x1="3" y1="3" x2="3" y2="27"/><line class="cls-3" x1="2.5" y1="27" x2="26" y2="27"/><path class="cls-4" d="M3.4,23.27a1.67,1.67,0,0,1,.67.22,4.82,4.82,0,0,0,1.34.2,11.51,11.51,0,0,0,3.5-.32c1.41-.37,3.05-0.81,4-2.54s1.17-4,1.41-6.1c0.56-4.65,2.62-9,6-9.52a28.26,28.26,0,0,1,4.36-.05c0.45,0,.87.05,1.31,0.05"/></svg>