<svg id="Background" xmlns="http://www.w3.org/2000/svg" width="30" height="30" viewBox="0 0 30 30"><defs><style>.cls-1{fill:none;}.cls-2{fill:#3c3c3c;}</style></defs><title>paragraphTypeObservation</title><rect class="cls-1" width="30" height="30"/><path class="cls-2" d="M27.2,14.66a1.85,1.85,0,0,1-.27.92,14.19,14.19,0,0,1-5,4.93,12.95,12.95,0,0,1-13.36,0,14.28,14.28,0,0,1-5-4.92,1.72,1.72,0,0,1,0-1.84,14.27,14.27,0,0,1,5-4.92,12.93,12.93,0,0,1,13.36,0,14.28,14.28,0,0,1,5,4.92A1.85,1.85,0,0,1,27.2,14.66Zm-1.71,0a13.15,13.15,0,0,0-5.09-4.72,5.85,5.85,0,0,1,.82,3,5.76,5.76,0,0,1-1.76,4.23,5.77,5.77,0,0,1-4.23,1.76A5.77,5.77,0,0,1,11,17.18a5.77,5.77,0,0,1-1.76-4.23,5.84,5.84,0,0,1,.82-3,13.14,13.14,0,0,0-5.09,4.72A13.8,13.8,0,0,0,9.41,19,11.2,11.2,0,0,0,21,19,13.8,13.8,0,0,0,25.48,14.66ZM15.67,10a0.64,0.64,0,0,0-.45-1.1,4.09,4.09,0,0,0-4.06,4.06,0.64,0.64,0,1,0,1.28,0,2.78,2.78,0,0,1,2.78-2.78A0.62,0.62,0,0,0,15.67,10Z"/></svg>