<svg id="Background" xmlns="http://www.w3.org/2000/svg" width="30" height="30" viewBox="0 0 30 30"><defs><style>.cls-1{fill:none;}.cls-2{fill:#939597;}.cls-3{font-size:2px;}.cls-3,.cls-6{fill:#fff;font-family:Verdana;}.cls-4{fill:#adacd6;}.cls-5{fill:#494b9f;}.cls-6{font-size:1.98px;}</style></defs><title>paragraphTypeHypothesis</title><rect class="cls-1" width="30" height="30"/><rect class="cls-2" x="13.61" y="23.5" width="14.97" height="3.66"/><text class="cls-3" transform="translate(14.13 25.85)">gene<tspan x="4.13" y="0">r</tspan><tspan x="4.75" y="0">al relativi</tspan><tspan x="11.96" y="0">t</tspan><tspan x="12.54" y="0">y</tspan></text><rect class="cls-4" x="14.73" y="16.87" width="13.24" height="3.66"/><text class="cls-3" transform="translate(15.71 19.22)">speed of light</text><rect class="cls-2" x="2.23" y="23.5" width="9.4" height="3.66"/><text class="cls-3" transform="translate(2.74 25.85)">according</text><rect class="cls-5" x="2.23" y="16.87" width="10.29" height="3.66"/><text class="cls-3" transform="translate(3.22 19.22)">is equal to</text><rect class="cls-4" x="20.36" y="10.3" width="7.04" height="3.66"/><text class="cls-3" transform="translate(21.34 12.65)">speed</text><rect class="cls-5" x="11.12" y="10.36" width="6.84" height="3.66"/><text class="cls-3" transform="translate(12.11 12.71)">THEN</text><rect class="cls-4" x="2.23" y="10.36" width="6.34" height="3.66"/><text class="cls-3" transform="translate(3.22 12.71)">mass</text><rect class="cls-5" x="17.96" y="3.23" width="7.37" height="3.66"/><text class="cls-3" transform="translate(18.95 5.59)">has no</text><rect class="cls-5" x="2.23" y="3.26" width="3.48" height="3.62"/><text class="cls-6" transform="translate(3.21 5.58)">IF</text><rect class="cls-4" x="8.1" y="3.23" width="7.47" height="3.66"/><text class="cls-3" transform="translate(9.09 5.59)">object</text></svg>