<svg id="Background" xmlns="http://www.w3.org/2000/svg" width="30" height="30" viewBox="0 0 30 30"><defs><style>.cls-1{fill:none;}.cls-2{fill:#3c3c3c;}</style></defs><title>paragraphTypeImage</title><rect class="cls-1" width="30" height="30"/><path class="cls-2" d="M27,7V22a1.9,1.9,0,0,1-.59,1.4A1.94,1.94,0,0,1,25,24H5a1.94,1.94,0,0,1-1.41-.58A1.9,1.9,0,0,1,3,22V7a1.9,1.9,0,0,1,.59-1.4A1.94,1.94,0,0,1,5,5H25a1.94,1.94,0,0,1,1.41.58A1.9,1.9,0,0,1,27,7Zm-2-.4H5a0.39,0.39,0,0,0-.28.12A0.38,0.38,0,0,0,4.6,7V22a0.38,0.38,0,0,0,.12.28,0.38,0.38,0,0,0,.28.12H25a0.38,0.38,0,0,0,.28-0.12A0.38,0.38,0,0,0,25.4,22V7a0.38,0.38,0,0,0-.12-0.28A0.39,0.39,0,0,0,25,6.58ZM10.3,8.86a2.37,2.37,0,0,1,0,3.36,2.33,2.33,0,0,1-1.7.69,2.32,2.32,0,0,1-1.7-.69,2.37,2.37,0,0,1,0-3.36,2.33,2.33,0,0,1,1.7-.69A2.33,2.33,0,0,1,10.3,8.86Zm13.5,6.43v5.54H6.2V18.46l4-4,2,2,6.4-6.33Z"/></svg>