<svg id="trashcan2" xmlns="http://www.w3.org/2000/svg" viewBox="0 0 25 27.03"><defs><style>.cls-1,.cls-2{fill:#ed1f24;}.cls-1{stroke:#fff;stroke-miterlimit:10;stroke-width:2px;}</style></defs><title>trashcan</title><path class="cls-1" d="M27.5,8.51v1a0.51,0.51,0,0,1-.15.37,0.52,0.52,0,0,1-.38.15H25.41V25.52a3.69,3.69,0,0,1-.77,2.34,2.28,2.28,0,0,1-1.85,1H9.21a2.3,2.3,0,0,1-1.85-1,3.56,3.56,0,0,1-.77-2.31V10.08H5a0.51,0.51,0,0,1-.38-0.15A0.51,0.51,0,0,1,4.5,9.56v-1A0.5,0.5,0,0,1,5,8h5l1.14-2.72a2.26,2.26,0,0,1,.88-1,2.31,2.31,0,0,1,1.29-.42h5.23a2.32,2.32,0,0,1,1.29.42,2.27,2.27,0,0,1,.88,1L21.93,8h5a0.52,0.52,0,0,1,.38.15A0.51,0.51,0,0,1,27.5,8.51Zm-4.18,17V10.08H8.68V25.52a1.85,1.85,0,0,0,.11.66,1.45,1.45,0,0,0,.24.44,0.36,0.36,0,0,0,.17.14H22.79A0.36,0.36,0,0,0,23,26.62a1.44,1.44,0,0,0,.24-0.44A1.85,1.85,0,0,0,23.32,25.52ZM12.86,13.73v9.38a0.5,0.5,0,0,1-.52.52h-1a0.5,0.5,0,0,1-.52-0.52V13.73a0.5,0.5,0,0,1,.52-0.52h1A0.5,0.5,0,0,1,12.86,13.73ZM12.34,8h7.32L18.88,6.09a0.46,0.46,0,0,0-.28-0.18H13.42a0.46,0.46,0,0,0-.28.18ZM17,13.73v9.38a0.5,0.5,0,0,1-.52.52h-1A0.5,0.5,0,0,1,15,23.11V13.73a0.5,0.5,0,0,1,.52-0.52h1A0.5,0.5,0,0,1,17,13.73Zm4.18,0v9.38a0.5,0.5,0,0,1-.52.52h-1a0.5,0.5,0,0,1-.52-0.52V13.73a0.5,0.5,0,0,1,.52-0.52h1A0.5,0.5,0,0,1,21.23,13.73Z" transform="translate(-3.5 -2.82)"/><path class="cls-2" d="M27.5,8.51v1a0.51,0.51,0,0,1-.15.37,0.52,0.52,0,0,1-.38.15H25.41V25.52a3.69,3.69,0,0,1-.77,2.34,2.28,2.28,0,0,1-1.85,1H9.21a2.3,2.3,0,0,1-1.85-1,3.56,3.56,0,0,1-.77-2.31V10.08H5a0.51,0.51,0,0,1-.38-0.15A0.51,0.51,0,0,1,4.5,9.56v-1A0.5,0.5,0,0,1,5,8h5l1.14-2.72a2.26,2.26,0,0,1,.88-1,2.31,2.31,0,0,1,1.29-.42h5.23a2.32,2.32,0,0,1,1.29.42,2.27,2.27,0,0,1,.88,1L21.93,8h5a0.52,0.52,0,0,1,.38.15A0.51,0.51,0,0,1,27.5,8.51Zm-4.18,17V10.08H8.68V25.52a1.85,1.85,0,0,0,.11.66,1.45,1.45,0,0,0,.24.44,0.36,0.36,0,0,0,.17.14H22.79A0.36,0.36,0,0,0,23,26.62a1.44,1.44,0,0,0,.24-0.44A1.85,1.85,0,0,0,23.32,25.52ZM12.86,13.73v9.38a0.5,0.5,0,0,1-.52.52h-1a0.5,0.5,0,0,1-.52-0.52V13.73a0.5,0.5,0,0,1,.52-0.52h1A0.5,0.5,0,0,1,12.86,13.73ZM12.34,8h7.32L18.88,6.09a0.46,0.46,0,0,0-.28-0.18H13.42a0.46,0.46,0,0,0-.28.18ZM17,13.73v9.38a0.5,0.5,0,0,1-.52.52h-1A0.5,0.5,0,0,1,15,23.11V13.73a0.5,0.5,0,0,1,.52-0.52h1A0.5,0.5,0,0,1,17,13.73Zm4.18,0v9.38a0.5,0.5,0,0,1-.52.52h-1a0.5,0.5,0,0,1-.52-0.52V13.73a0.5,0.5,0,0,1,.52-0.52h1A0.5,0.5,0,0,1,21.23,13.73Z" transform="translate(-3.5 -2.82)"/></svg>